<svg width="20" height="20" viewBox="0 0 20 20" fill="none" xmlns="http://www.w3.org/2000/svg">
<path fill-rule="evenodd" clip-rule="evenodd" d="M7.67244 0.988883C7.93418 0.864729 8.24401 0.902411 8.46836 1.08568C8.57913 1.17617 8.70508 1.27569 8.84285 1.38454C9.67035 2.03837 10.9243 3.02914 11.8768 4.42446L11.8768 4.42448C12.4579 5.27584 12.9204 6.37787 13.2332 7.26595C13.2943 7.43937 13.3504 7.60675 13.4012 7.76507C13.6349 7.42178 13.84 6.95976 13.914 6.33932C13.9523 6.01781 14.1927 5.75721 14.51 5.69302C14.8274 5.62884 15.1501 5.77557 15.3104 6.05691C15.5599 6.49483 15.7285 6.79381 15.8927 7.17006C16.0541 7.53981 16.2063 7.97287 16.4431 8.68457L15.7315 8.92135L16.4431 8.68458C16.9508 10.2106 16.9999 11.2141 16.9999 12.1241C16.9999 16.0393 13.8343 19.0832 10 19.0832C6.18752 19.0832 3 16.1937 3 12.2574C3 11.3795 3.0932 10.0314 3.74756 8.96741L3.74758 8.96738C4.1976 8.23571 4.52073 7.88902 4.92059 7.46C5.03973 7.33217 5.16568 7.19703 5.30384 7.04222L5.30385 7.04221C5.41866 6.91357 5.51126 6.81166 5.58904 6.72607C5.74868 6.55039 5.84587 6.44343 5.94448 6.31504C6.0747 6.1455 6.20436 5.93875 6.45671 5.46416C6.66499 5.07244 6.8662 4.43576 7.01474 3.70774C7.1613 2.98943 7.24388 2.2454 7.24388 1.66651C7.24388 1.37682 7.41071 1.11304 7.67244 0.988883ZM8.63217 3.14331C8.59224 3.43199 8.5425 3.72313 8.48446 4.00762C8.32432 4.79247 8.08805 5.59112 7.78113 6.16837C7.51827 6.66273 7.34195 6.9581 7.1341 7.22872C6.99599 7.40854 6.83956 7.58076 6.65304 7.78611C6.58106 7.86535 6.50461 7.94952 6.42299 8.04097M8.63217 3.14331C9.30858 3.70769 10.0388 4.39252 10.6379 5.27015C11.1096 5.96129 11.5208 6.9195 11.8184 7.76432C11.965 8.18059 12.0794 8.5557 12.1562 8.83686C12.1947 8.97786 12.2226 9.09097 12.2402 9.17108C12.2508 9.21953 12.255 9.24431 12.2563 9.2516C12.2743 9.51713 12.4321 9.75495 12.6731 9.87369C12.9294 9.99995 13.2351 9.96969 13.4616 9.79564C13.4785 9.78263 13.4991 9.76734 13.5228 9.74968C13.7595 9.57365 14.3138 9.16131 14.7664 8.41388C14.8373 8.61426 14.9191 8.85554 15.0198 9.15812C15.4619 10.487 15.4999 11.3204 15.4999 12.1241C15.4999 15.1889 13.028 17.5832 10 17.5832C6.95023 17.5832 4.5 15.3011 4.5 12.2574C4.5 11.4217 4.60343 10.4391 5.02525 9.75323C5.39225 9.15654 5.60814 8.92456 5.97834 8.52678C6.10457 8.39114 6.24875 8.23622 6.42298 8.04099" fill="black"/>
</svg>
