<svg width="205" height="42" viewBox="0 0 205 42" fill="none" xmlns="http://www.w3.org/2000/svg">
<g clip-path="url(#clip0_8011_52730)">
<path d="M6.68971 29.4138C10.3843 29.4138 13.3794 26.4067 13.3794 22.6971C13.3794 18.9876 10.3843 15.9805 6.68971 15.9805C2.99508 15.9805 0 18.9876 0 22.6971C0 26.4067 2.99508 29.4138 6.68971 29.4138Z" fill="black"/>
<path d="M6.6896 27.5339C9.52904 27.5339 11.8309 25.2228 11.8309 22.3719C11.8309 19.5211 9.52904 17.21 6.6896 17.21C3.85016 17.21 1.54834 19.5211 1.54834 22.3719C1.54834 25.2228 3.85016 27.5339 6.6896 27.5339Z" fill="#00CC78"/>
<path d="M6.84172 24.7597C9.79294 24.7597 12.1854 22.3576 12.1854 19.3945C12.1854 16.4314 9.79294 14.0293 6.84172 14.0293C3.89049 14.0293 1.49805 16.4314 1.49805 19.3945C1.49805 22.3576 3.89049 24.7597 6.84172 24.7597Z" fill="black"/>
<path d="M6.8416 23.083C9.06061 23.083 10.8595 21.2769 10.8595 19.049C10.8595 16.821 9.06061 15.0149 6.8416 15.0149C4.62259 15.0149 2.82373 16.821 2.82373 19.049C2.82373 21.2769 4.62259 23.083 6.8416 23.083Z" fill="#F62654"/>
<path d="M8.1573 20.1464C10.3651 20.1464 12.1549 18.3494 12.1549 16.1326C12.1549 13.9159 10.3651 12.1189 8.1573 12.1189C5.94947 12.1189 4.15967 13.9159 4.15967 16.1326C4.15967 18.3494 5.94947 20.1464 8.1573 20.1464Z" fill="black"/>
<path d="M8.15727 18.6121C9.71114 18.6121 10.9708 17.3474 10.9708 15.7873C10.9708 14.2271 9.71114 12.9624 8.15727 12.9624C6.60341 12.9624 5.34375 14.2271 5.34375 15.7873C5.34375 17.3474 6.60341 18.6121 8.15727 18.6121Z" fill="#0086D3"/>
<path d="M10.7685 17.535C12.6968 17.535 14.2601 15.9655 14.2601 14.0294C14.2601 12.0932 12.6968 10.5237 10.7685 10.5237C8.8401 10.5237 7.27686 12.0932 7.27686 14.0294C7.27686 15.9655 8.8401 17.535 10.7685 17.535Z" fill="black"/>
<path d="M10.7683 16.2953C12.2104 16.2953 13.3794 15.1215 13.3794 13.6736C13.3794 12.2257 12.2104 11.052 10.7683 11.052C9.32626 11.052 8.15723 12.2257 8.15723 13.6736C8.15723 15.1215 9.32626 16.2953 10.7683 16.2953Z" fill="#8E2DFF"/>
<path d="M33.6206 22.6971C33.6206 26.4061 36.6163 29.4138 40.3103 29.4138C44.0043 29.4138 47 26.4061 47 22.6971C47 18.9882 44.0043 15.9805 40.3103 15.9805C36.6163 15.9805 33.6206 18.9882 33.6206 22.6971Z" fill="black"/>
<path d="M35.1689 22.3719C35.1689 25.2273 37.4764 27.5339 40.3102 27.5339C43.144 27.5339 45.4515 25.2171 45.4515 22.3719C45.4515 19.5268 43.144 17.21 40.3102 17.21C37.4764 17.21 35.1689 19.5268 35.1689 22.3719Z" fill="#00CC78"/>
<path d="M40.1586 24.7597C43.1098 24.7597 45.5023 22.3576 45.5023 19.3945C45.5023 16.4314 43.1098 14.0293 40.1586 14.0293C37.2074 14.0293 34.8149 16.4314 34.8149 19.3945C34.8149 22.3576 37.2074 24.7597 40.1586 24.7597Z" fill="black"/>
<path d="M40.1585 23.083C42.3775 23.083 44.1764 21.2769 44.1764 19.049C44.1764 16.821 42.3775 15.0149 40.1585 15.0149C37.9395 15.0149 36.1406 16.821 36.1406 19.049C36.1406 21.2769 37.9395 23.083 40.1585 23.083Z" fill="#F62654"/>
<path d="M38.8428 20.1464C41.0507 20.1464 42.8405 18.3494 42.8405 16.1326C42.8405 13.9159 41.0507 12.1189 38.8428 12.1189C36.635 12.1189 34.8452 13.9159 34.8452 16.1326C34.8452 18.3494 36.635 20.1464 38.8428 20.1464Z" fill="black"/>
<path d="M38.8428 18.6121C40.3967 18.6121 41.6563 17.3474 41.6563 15.7873C41.6563 14.2271 40.3967 12.9624 38.8428 12.9624C37.289 12.9624 36.0293 14.2271 36.0293 15.7873C36.0293 17.3474 37.289 18.6121 38.8428 18.6121Z" fill="#0086D3"/>
<path d="M36.2318 17.535C38.1602 17.535 39.7234 15.9655 39.7234 14.0294C39.7234 12.0932 38.1602 10.5237 36.2318 10.5237C34.3035 10.5237 32.7402 12.0932 32.7402 14.0294C32.7402 15.9655 34.3035 17.535 36.2318 17.535Z" fill="black"/>
<path d="M36.2317 16.2953C37.6738 16.2953 38.8428 15.1215 38.8428 13.6736C38.8428 12.2257 37.6738 11.052 36.2317 11.052C34.7896 11.052 33.6206 12.2257 33.6206 13.6736C33.6206 15.1215 34.7896 16.2953 36.2317 16.2953Z" fill="#8E2DFF"/>
<path d="M37.2033 16.9456C37.8105 15.1267 36.7377 11.7836 34.6124 10.9809C35.8167 7.72923 33.0032 4.315 28.8133 5.2905C27.3863 4.58936 25.4431 4 23.5 4C21.5568 4 19.6238 4.5792 18.1867 5.2905C14.0069 4.315 11.1832 7.72923 12.3876 10.9809C10.2623 11.7836 9.18948 15.1166 9.79671 16.9456C6.69981 18.2564 6.01161 26.7209 14.4117 27.5033C16.5977 28.7836 15.9399 31.324 18.3284 35.7035C20.14 39.0263 22.9029 37.7765 23.5 37.7765C24.4918 37.7765 26.8499 39.0263 28.6716 35.7035C31.0601 31.3341 30.4124 28.7836 32.5883 27.5033C40.9985 26.7209 40.3002 18.2564 37.2033 16.9456Z" fill="black"/>
<path d="M36.0293 17.291C36.5961 15.594 35.7763 12.4338 33.6611 11.3059C32.892 10.3507 31.718 6.93651 28.6615 6.18456C27.5078 5.44278 25.3015 4.84326 23.4899 4.84326C21.6783 4.84326 19.4721 5.45295 18.3183 6.18456C15.272 6.92635 14.0879 10.3507 13.3187 11.3059C11.2035 12.4338 10.3838 15.6042 10.9505 17.291C8.49122 19.4249 8.4811 26.1517 15.1404 26.4159C17.1646 27.747 17.6503 31.9538 19.219 34.7076C20.7776 37.4715 23.2268 36.6484 23.4899 35.8863C23.7531 36.6484 26.2022 37.4715 27.7608 34.7076C29.3194 31.9437 29.8153 27.747 31.8394 26.4159C38.4886 26.1517 38.4886 19.435 36.0293 17.291Z" fill="#FFC328"/>
<path d="M33.6612 11.306C34.1875 8.31857 31.5662 5.55468 27.7811 6.30662C25.6052 6.7334 25.5445 8.13567 23.5001 8.13567C21.4558 8.13567 21.3849 6.74356 19.2191 6.30662C15.434 5.56484 12.8128 8.31857 13.339 11.306C11.821 12.4238 10.9202 16.8643 13.0253 16.0412C15.8793 14.9336 18.4196 16.6306 19.4013 18.2767L23.5102 19.1608L27.6192 18.2767C28.6009 16.6407 31.1412 14.9438 33.9952 16.0412C36.0901 16.8745 35.5942 12.9014 33.6814 11.306H33.6612Z" fill="white"/>
<path d="M29.4812 12.6982C29.4609 13.0539 29.127 13.3384 28.712 13.3384C28.2971 13.3384 27.9631 13.0539 27.9429 12.6982C27.4166 12.9421 27.0522 13.4095 27.0522 13.9583C27.0522 14.7508 27.8012 15.391 28.712 15.391C29.6229 15.391 30.3718 14.7508 30.3718 13.9583C30.3718 13.4095 30.0075 12.932 29.4812 12.6982Z" fill="black"/>
<path d="M19.0569 12.6982C19.0366 13.0539 18.7026 13.3384 18.2877 13.3384C17.8728 13.3384 17.5388 13.0539 17.5185 12.6982C16.9923 12.9421 16.6279 13.4095 16.6279 13.9583C16.6279 14.7508 17.3769 15.391 18.2877 15.391C19.1986 15.391 19.9475 14.7508 19.9475 13.9583C19.9475 13.4095 19.5831 12.932 19.0569 12.6982Z" fill="black"/>
<path d="M32.2545 18.0735C31.4044 17.9516 29.6131 18.2666 28.7123 19.6689C27.7003 21.2439 25.7369 22.3616 23.5002 22.3616C21.2636 22.3616 19.3002 21.2439 18.2881 19.6689C17.3874 18.2666 15.5859 17.9516 14.7459 18.0735C10.6471 18.6527 10.7281 24.7902 14.9483 25.2576C17.5696 26.4262 18.4096 30.3993 19.2192 32.6653C20.0289 34.9313 22.0935 36.3539 23.5104 34.6366C24.9272 36.3539 26.9918 34.9313 27.8015 32.6653C28.6111 30.3993 29.441 26.4262 32.0724 25.2576C36.2927 24.7902 36.3736 18.6527 32.2748 18.0735H32.2545Z" fill="white"/>
<path d="M31.89 20.1059C31.89 20.1059 31.8292 20.0855 31.7989 20.0754C31.7381 20.055 31.6673 20.0449 31.5965 20.0347C31.5661 20.0347 31.5357 20.0144 31.5054 20.0144C31.4953 20.0144 31.4851 20.0144 31.4649 20.0144C31.4345 20.0144 31.4143 20.0144 31.3839 20.0144C31.2422 20.0144 31.1006 20.0347 30.969 20.0754C30.9386 20.0754 30.9083 20.0957 30.888 20.1059C30.7261 20.1567 30.5743 20.2278 30.4326 20.3192C30.3921 20.3497 30.3415 20.3904 30.301 20.431C30.2605 20.4615 30.2201 20.5022 30.1796 20.5326C29.9367 20.746 29.6938 21.0001 29.4307 21.3455C28.3275 22.8189 26.1415 23.9469 23.5 23.9469C20.8585 23.9469 18.6725 22.8088 17.5693 21.3455C17.3062 21.0001 17.0633 20.746 16.8204 20.5326C16.7799 20.492 16.7394 20.4615 16.699 20.431C16.6585 20.4005 16.6079 20.3497 16.5674 20.3192C16.4257 20.2278 16.2739 20.1567 16.112 20.1059C16.0816 20.1059 16.0512 20.0855 16.031 20.0754C15.8994 20.0449 15.7577 20.0144 15.6161 20.0144C15.5857 20.0144 15.5654 20.0144 15.5351 20.0144C15.525 20.0144 15.5148 20.0144 15.4946 20.0144C15.4642 20.0144 15.4339 20.0246 15.4035 20.0347C15.3327 20.0347 15.272 20.055 15.2011 20.0754C15.1707 20.0754 15.1404 20.0957 15.11 20.1059C14.4319 20.3192 13.936 20.9594 13.936 21.7114C13.936 22.6462 14.6951 23.4083 15.6262 23.4083H15.6464C16.5471 23.4083 17.3973 23.8148 17.7819 24.6378C18.5308 26.2433 19.391 28.1029 19.5934 28.4382C20.3221 29.6474 21.152 32.2792 23.5101 32.2792C25.8682 32.2792 26.6981 29.6372 27.4268 28.4382C27.6292 28.1029 28.4894 26.2433 29.2384 24.6378C29.6229 23.8148 30.4731 23.3981 31.3738 23.4083H31.394C32.3251 23.4083 33.0842 22.6462 33.0842 21.7114C33.0842 20.9594 32.5883 20.3294 31.9102 20.1059H31.89Z" fill="#F62654"/>
<path d="M28.9044 23.266C26.9511 24.9121 24.3198 25.1662 23.5 25.1662V30.3281C24.3602 30.3281 25.3217 29.6981 26.2326 28.5397C27.0321 27.5236 28.4085 24.9934 29.208 23.4997C29.3092 23.3066 29.0764 23.1339 28.9145 23.2761L28.9044 23.266Z" fill="black"/>
<path d="M18.0958 23.266C20.0491 24.9121 22.6805 25.1662 23.5002 25.1662V30.3281C22.64 30.3281 21.6785 29.6981 20.7677 28.5397C19.9682 27.5236 18.5918 24.9934 17.7922 23.4997C17.691 23.3066 17.9238 23.1339 18.0857 23.2761L18.0958 23.266Z" fill="black"/>
<path d="M25.6252 24.8716C25.6252 24.8716 24.6333 25.1256 23.4998 25.1663C22.3663 25.1256 21.3745 24.8716 21.3745 24.8716C21.3745 25.2476 21.415 25.7963 21.6478 26.1113C21.8401 26.3755 22.9331 26.4466 23.4897 26.4466C24.0565 26.4466 25.1495 26.3755 25.3317 26.1113C25.5644 25.7861 25.6049 25.2476 25.6049 24.8716H25.6252Z" fill="white"/>
<path d="M23.4999 21.3555C26.166 21.3555 28.3274 19.2855 28.3274 16.7321C28.3274 14.1786 26.166 12.1086 23.4999 12.1086C20.8337 12.1086 18.6724 14.1786 18.6724 16.7321C18.6724 19.2855 20.8337 21.3555 23.4999 21.3555Z" fill="black"/>
<path d="M23.5 20.1567C25.9147 20.1567 27.8721 18.2823 27.8721 15.9702C27.8721 13.658 25.9147 11.7837 23.5 11.7837C21.0854 11.7837 19.1279 13.658 19.1279 15.9702C19.1279 18.2823 21.0854 20.1567 23.5 20.1567Z" fill="#F62654"/>
<path d="M24.5426 29.5762C24.411 29.495 24.2086 29.4238 23.5002 29.4238C22.7917 29.4238 22.5893 29.495 22.4577 29.5762C22.3768 29.6271 22.3464 29.7388 22.3262 29.9624C22.3262 29.9624 22.8626 30.318 23.5103 30.318C24.158 30.318 24.6944 29.9624 24.6944 29.9624C24.6741 29.7388 24.6438 29.6271 24.5628 29.5762H24.5426Z" fill="white"/>
<path d="M29.7748 10.2288C30.8375 10.7572 31.5864 11.6514 32.0013 12.6675C32.3454 11.2551 31.8698 9.41589 30.5237 8.74524C29.1777 8.07459 27.4066 8.79605 26.5059 9.9138C27.5685 9.62928 28.7223 9.69025 29.7849 10.2288H29.7748Z" fill="black"/>
<path d="M17.2153 10.2288C16.1526 10.7572 15.4037 11.6514 14.9887 12.6675C14.6446 11.2551 15.1203 9.41589 16.4663 8.74524C17.8124 8.07459 19.5835 8.79605 20.4842 9.9138C19.4215 9.62928 18.2678 9.69025 17.2051 10.2288H17.2153Z" fill="black"/>
</g>
<path d="M60.6618 23.8953H63.1764C67.1369 23.911 68.9757 22.5123 68.9757 19.7148C68.9757 16.7602 67.294 15.33 63.035 15.33H57V26.5985H60.6618V23.8953ZM60.6618 18.4261H63.0035C64.5909 18.4261 65.2352 18.6304 65.2352 19.7305C65.2352 20.6421 64.7009 20.9564 63.0507 20.9564H60.6618V18.4261Z" fill="white"/>
<path d="M78.4419 26.9128C81.1765 26.9128 83.251 26.0798 84.3826 24.3354C84.9484 23.4553 85.2313 22.3708 85.2313 21.0507V20.9878C85.2313 18.4575 84.0211 16.6816 81.978 15.7387C80.9722 15.2829 79.7935 15.0471 78.4733 15.0471C75.7702 15.0471 73.6799 16.0058 72.5169 17.7975C71.9512 18.6776 71.6526 19.7463 71.6526 21.0035V21.035C71.6526 23.7381 72.7841 25.4355 74.8272 26.2842C75.8645 26.7085 77.0589 26.9128 78.4419 26.9128ZM78.4262 23.581C76.6346 23.581 75.5659 22.748 75.5659 21.035V21.0193C75.5659 19.2276 76.6503 18.379 78.4419 18.379C80.2178 18.379 81.318 19.1805 81.318 21.035C81.318 22.8423 80.2178 23.581 78.4262 23.581Z" fill="white"/>
<path d="M88.2603 26.5985H98.5229V23.0624H92.1893V15.33H88.2603V26.5985Z" fill="white"/>
<path d="M101.878 26.5985H105.76V22.1351L110.663 15.33H106.436L103.89 19.0233L101.454 15.33H97.2102L101.878 22.1194V26.5985Z" fill="white"/>
<path d="M116.4 20.3749L119.449 23.9267H119.716L122.907 20.3435V26.5985H126.616V15.33H123.284L119.669 19.542L116.133 15.33H112.675V26.5985H116.4V20.3749Z" fill="white"/>
<path d="M136.435 26.9128C139.17 26.9128 141.244 26.0798 142.376 24.3354C142.941 23.4553 143.224 22.3708 143.224 21.0507V20.9878C143.224 18.4575 142.014 16.6816 139.971 15.7387C138.965 15.2829 137.786 15.0471 136.466 15.0471C133.763 15.0471 131.673 16.0058 130.51 17.7975C129.944 18.6776 129.646 19.7463 129.646 21.0035V21.035C129.646 23.7381 130.777 25.4355 132.82 26.2842C133.857 26.7085 135.052 26.9128 136.435 26.9128ZM136.419 23.581C134.628 23.581 133.559 22.748 133.559 21.035V21.0193C133.559 19.2276 134.643 18.379 136.435 18.379C138.211 18.379 139.311 19.1805 139.311 21.035C139.311 22.8423 138.211 23.581 136.419 23.581Z" fill="white"/>
<path d="M149.962 23.3924H152.225C153.734 23.3924 154.19 23.7539 154.19 24.9954V25.8441C154.19 26.1113 154.269 26.457 154.567 26.5985H158.543C158.245 26.4256 158.135 26.1113 158.135 25.7812V25.0583C158.135 23.1881 157.632 22.3237 156.044 21.9465C157.585 21.4593 158.276 20.5635 158.276 19.0233C158.276 17.3103 157.6 16.2416 155.887 15.7229C155.039 15.4715 153.923 15.33 152.493 15.33H146.253V26.5985H149.962V23.3924ZM149.962 18.3004H152.54C153.86 18.3004 154.457 18.5361 154.457 19.3848V19.4948C154.457 20.3749 153.671 20.5792 152.493 20.5792H149.962V18.3004Z" fill="white"/>
<path d="M164.993 23.8953H167.507C171.468 23.911 173.307 22.5123 173.307 19.7148C173.307 16.7602 171.625 15.33 167.366 15.33H161.331V26.5985H164.993V23.8953ZM164.993 18.4261H167.334C168.922 18.4261 169.566 18.6304 169.566 19.7305C169.566 20.6421 169.032 20.9564 167.382 20.9564H164.993V18.4261Z" fill="white"/>
<path d="M184.695 22.6695V26.5985H188.483V15.33H184.695V19.3062H180.043V15.33H176.224V26.5985H180.043V22.6695H184.695Z" fill="white"/>
<path d="M197.997 26.9285C200.841 26.9285 202.601 26.237 203.45 25.0583C203.89 24.4611 204.094 23.7853 204.094 22.9838C204.094 21.3807 203.324 20.4849 201.706 19.9977C200.888 19.762 199.898 19.6048 198.657 19.542C197.211 19.4634 196.362 19.3534 195.906 19.2276C195.466 19.1019 195.341 18.9133 195.341 18.6461C195.341 18.1432 195.812 17.7817 197.289 17.7817C198.845 17.7817 199.788 18.0489 200.024 18.9919H204.032C203.356 16.0844 201.25 15 197.399 15C193.612 15 191.522 16.4616 191.522 18.8662C191.522 21.1764 193.125 22.0408 196.535 22.2766C198.594 22.4023 199.6 22.4966 199.993 22.7323C200.181 22.8423 200.291 23.0152 200.291 23.2509C200.291 23.8482 199.678 24.0996 198.248 24.0996C196.708 24.0996 195.576 23.7853 195.309 22.748H191.113C191.443 24.6025 192.339 25.8441 194.24 26.457C195.215 26.7714 196.441 26.9285 197.997 26.9285Z" fill="white"/>
<defs>
<clipPath id="clip0_8011_52730">
<rect width="47" height="34" fill="white" transform="translate(0 4)"/>
</clipPath>
</defs>
</svg>
