<svg width="205" height="42" viewBox="0 0 205 42" fill="none" xmlns="http://www.w3.org/2000/svg">
<g clip-path="url(#clip0_7472_147961)">
<path d="M6.68971 29.4136C10.3843 29.4136 13.3794 26.4065 13.3794 22.6969C13.3794 18.9874 10.3843 15.9803 6.68971 15.9803C2.99508 15.9803 0 18.9874 0 22.6969C0 26.4065 2.99508 29.4136 6.68971 29.4136Z" fill="black"/>
<path d="M6.68972 27.5337C9.52916 27.5337 11.831 25.2226 11.831 22.3718C11.831 19.5209 9.52916 17.2098 6.68972 17.2098C3.85028 17.2098 1.54846 19.5209 1.54846 22.3718C1.54846 25.2226 3.85028 27.5337 6.68972 27.5337Z" fill="#00CC78"/>
<path d="M6.84153 24.7597C9.79276 24.7597 12.1852 22.3576 12.1852 19.3945C12.1852 16.4314 9.79276 14.0293 6.84153 14.0293C3.89031 14.0293 1.49786 16.4314 1.49786 19.3945C1.49786 22.3576 3.89031 24.7597 6.84153 24.7597Z" fill="black"/>
<path d="M6.84148 23.0831C9.06049 23.0831 10.8594 21.2769 10.8594 19.049C10.8594 16.821 9.06049 15.0149 6.84148 15.0149C4.62247 15.0149 2.82361 16.821 2.82361 19.049C2.82361 21.2769 4.62247 23.0831 6.84148 23.0831Z" fill="#F62654"/>
<path d="M8.15718 20.1464C10.365 20.1464 12.1548 18.3494 12.1548 16.1327C12.1548 13.9159 10.365 12.1189 8.15718 12.1189C5.94935 12.1189 4.15955 13.9159 4.15955 16.1327C4.15955 18.3494 5.94935 20.1464 8.15718 20.1464Z" fill="black"/>
<path d="M8.15721 18.612C9.71108 18.612 10.9707 17.3473 10.9707 15.7872C10.9707 14.227 9.71108 12.9623 8.15721 12.9623C6.60335 12.9623 5.34369 14.227 5.34369 15.7872C5.34369 17.3473 6.60335 18.612 8.15721 18.612Z" fill="#0086D3"/>
<path d="M10.7683 17.5349C12.6966 17.5349 14.2599 15.9654 14.2599 14.0293C14.2599 12.0931 12.6966 10.5236 10.7683 10.5236C8.83992 10.5236 7.27667 12.0931 7.27667 14.0293C7.27667 15.9654 8.83992 17.5349 10.7683 17.5349Z" fill="black"/>
<path d="M10.7683 16.2952C12.2104 16.2952 13.3794 15.1215 13.3794 13.6736C13.3794 12.2257 12.2104 11.052 10.7683 11.052C9.32626 11.052 8.15723 12.2257 8.15723 13.6736C8.15723 15.1215 9.32626 16.2952 10.7683 16.2952Z" fill="#8E2DFF"/>
<path d="M33.6206 22.6969C33.6206 26.4058 36.6163 29.4136 40.3103 29.4136C44.0043 29.4136 47 26.4058 47 22.6969C47 18.988 44.0043 15.9803 40.3103 15.9803C36.6163 15.9803 33.6206 18.988 33.6206 22.6969Z" fill="black"/>
<path d="M35.1691 22.3718C35.1691 25.2271 37.4766 27.5337 40.3103 27.5337C43.1441 27.5337 45.4516 25.2169 45.4516 22.3718C45.4516 19.5266 43.1441 17.2098 40.3103 17.2098C37.4766 17.2098 35.1691 19.5266 35.1691 22.3718Z" fill="#00CC78"/>
<path d="M40.1585 24.7597C43.1097 24.7597 45.5022 22.3576 45.5022 19.3945C45.5022 16.4314 43.1097 14.0293 40.1585 14.0293C37.2073 14.0293 34.8148 16.4314 34.8148 19.3945C34.8148 22.3576 37.2073 24.7597 40.1585 24.7597Z" fill="black"/>
<path d="M40.1585 23.0831C42.3775 23.0831 44.1764 21.2769 44.1764 19.049C44.1764 16.821 42.3775 15.0149 40.1585 15.0149C37.9395 15.0149 36.1406 16.821 36.1406 19.049C36.1406 21.2769 37.9395 23.0831 40.1585 23.0831Z" fill="#F62654"/>
<path d="M38.8428 20.1464C41.0507 20.1464 42.8405 18.3494 42.8405 16.1327C42.8405 13.9159 41.0507 12.1189 38.8428 12.1189C36.635 12.1189 34.8452 13.9159 34.8452 16.1327C34.8452 18.3494 36.635 20.1464 38.8428 20.1464Z" fill="black"/>
<path d="M38.8428 18.612C40.3967 18.612 41.6563 17.3473 41.6563 15.7872C41.6563 14.227 40.3967 12.9623 38.8428 12.9623C37.289 12.9623 36.0293 14.227 36.0293 15.7872C36.0293 17.3473 37.289 18.612 38.8428 18.612Z" fill="#0086D3"/>
<path d="M36.2317 17.5349C38.1601 17.5349 39.7233 15.9654 39.7233 14.0293C39.7233 12.0931 38.1601 10.5236 36.2317 10.5236C34.3034 10.5236 32.7401 12.0931 32.7401 14.0293C32.7401 15.9654 34.3034 17.5349 36.2317 17.5349Z" fill="black"/>
<path d="M36.2317 16.2952C37.6738 16.2952 38.8428 15.1215 38.8428 13.6736C38.8428 12.2257 37.6738 11.052 36.2317 11.052C34.7896 11.052 33.6206 12.2257 33.6206 13.6736C33.6206 15.1215 34.7896 16.2952 36.2317 16.2952Z" fill="#8E2DFF"/>
<path d="M37.2033 16.9456C37.8105 15.1267 36.7377 11.7836 34.6124 10.9809C35.8167 7.72923 33.0032 4.315 28.8133 5.2905C27.3863 4.58936 25.4431 4 23.5 4C21.5568 4 19.6238 4.5792 18.1867 5.2905C14.0069 4.315 11.1832 7.72923 12.3876 10.9809C10.2623 11.7836 9.18948 15.1166 9.79671 16.9456C6.69981 18.2564 6.01161 26.7209 14.4117 27.5033C16.5977 28.7836 15.9399 31.324 18.3284 35.7035C20.14 39.0263 22.9029 37.7765 23.5 37.7765C24.4918 37.7765 26.8499 39.0263 28.6716 35.7035C31.0601 31.3341 30.4124 28.7836 32.5883 27.5033C40.9985 26.7209 40.3002 18.2564 37.2033 16.9456Z" fill="black"/>
<path d="M36.0293 17.2911C36.596 15.5941 35.7763 12.4339 33.6611 11.306C32.8919 10.3509 31.7179 6.93663 28.6615 6.18469C27.5077 5.44291 25.3015 4.84338 23.4899 4.84338C21.6783 4.84338 19.472 5.45307 18.3182 6.18469C15.272 6.92647 14.0878 10.3509 13.3187 11.306C11.2035 12.4339 10.3837 15.6043 10.9505 17.2911C8.49116 19.425 8.48104 26.1518 15.1404 26.416C17.1645 27.7471 17.6503 31.954 19.219 34.7077C20.7775 37.4716 23.2267 36.6485 23.4899 35.8864C23.753 36.6485 26.2022 37.4716 27.7608 34.7077C29.3193 31.9438 29.8152 27.7471 31.8393 26.416C38.4886 26.1518 38.4886 19.4351 36.0293 17.2911Z" fill="#FFC328"/>
<path d="M33.6611 11.306C34.1873 8.31857 31.5661 5.55468 27.781 6.30662C25.6051 6.7334 25.5444 8.13567 23.5 8.13567C21.4556 8.13567 21.3848 6.74356 19.219 6.30662C15.4339 5.56484 12.8127 8.31857 13.3389 11.306C11.8208 12.4238 10.9201 16.8643 13.0252 16.0412C15.8792 14.9336 18.4195 16.6306 19.4012 18.2767L23.5101 19.1608L27.6191 18.2767C28.6008 16.6407 31.141 14.9438 33.995 16.0412C36.09 16.8745 35.5941 12.9014 33.6813 11.306H33.6611Z" fill="white"/>
<path d="M29.4812 12.6981C29.461 13.0538 29.127 13.3383 28.7121 13.3383C28.2971 13.3383 27.9632 13.0538 27.9429 12.6981C27.4166 12.942 27.0523 13.4094 27.0523 13.9581C27.0523 14.7507 27.8012 15.3909 28.7121 15.3909C29.6229 15.3909 30.3719 14.7507 30.3719 13.9581C30.3719 13.4094 30.0075 12.9318 29.4812 12.6981Z" fill="black"/>
<path d="M19.0571 12.6981C19.0368 13.0538 18.7028 13.3383 18.2879 13.3383C17.8729 13.3383 17.539 13.0538 17.5187 12.6981C16.9925 12.942 16.6281 13.4094 16.6281 13.9581C16.6281 14.7507 17.377 15.3909 18.2879 15.3909C19.1987 15.3909 19.9477 14.7507 19.9477 13.9581C19.9477 13.4094 19.5833 12.9318 19.0571 12.6981Z" fill="black"/>
<path d="M32.2543 18.0735C31.4042 17.9516 29.6128 18.2666 28.7121 19.6689C27.7 21.2439 25.7366 22.3616 23.5 22.3616C21.2633 22.3616 19.3 21.2439 18.2879 19.6689C17.3872 18.2666 15.5857 17.9516 14.7457 18.0735C10.6469 18.6527 10.7278 24.7902 14.9481 25.2576C17.5693 26.4262 18.4093 30.3993 19.219 32.6653C20.0286 34.9313 22.0932 36.3539 23.5101 34.6366C24.927 36.3539 26.9916 34.9313 27.8012 32.6653C28.6109 30.3993 29.4408 26.4262 32.0721 25.2576C36.2924 24.7902 36.3734 18.6527 32.2745 18.0735H32.2543Z" fill="white"/>
<path d="M31.89 20.1058C31.89 20.1058 31.8292 20.0854 31.7989 20.0753C31.7381 20.055 31.6673 20.0448 31.5965 20.0346C31.5661 20.0346 31.5357 20.0143 31.5054 20.0143C31.4953 20.0143 31.4851 20.0143 31.4649 20.0143C31.4345 20.0143 31.4143 20.0143 31.3839 20.0143C31.2422 20.0143 31.1006 20.0346 30.969 20.0753C30.9386 20.0753 30.9083 20.0956 30.888 20.1058C30.7261 20.1566 30.5743 20.2277 30.4326 20.3192C30.3921 20.3496 30.3415 20.3903 30.301 20.4309C30.2605 20.4614 30.2201 20.5021 30.1796 20.5325C29.9367 20.7459 29.6938 21 29.4307 21.3455C28.3275 22.8189 26.1415 23.9468 23.5 23.9468C20.8585 23.9468 18.6725 22.8087 17.5693 21.3455C17.3062 21 17.0633 20.7459 16.8204 20.5325C16.7799 20.4919 16.7394 20.4614 16.699 20.4309C16.6585 20.4004 16.6079 20.3496 16.5674 20.3192C16.4257 20.2277 16.2739 20.1566 16.112 20.1058C16.0816 20.1058 16.0512 20.0854 16.031 20.0753C15.8994 20.0448 15.7577 20.0143 15.6161 20.0143C15.5857 20.0143 15.5654 20.0143 15.5351 20.0143C15.525 20.0143 15.5148 20.0143 15.4946 20.0143C15.4642 20.0143 15.4339 20.0245 15.4035 20.0346C15.3327 20.0346 15.272 20.055 15.2011 20.0753C15.1707 20.0753 15.1404 20.0956 15.11 20.1058C14.4319 20.3192 13.936 20.9593 13.936 21.7113C13.936 22.6461 14.6951 23.4082 15.6262 23.4082H15.6464C16.5471 23.4082 17.3973 23.8147 17.7819 24.6377C18.5308 26.2432 19.391 28.1028 19.5934 28.4381C20.3221 29.6473 21.152 32.2791 23.5101 32.2791C25.8682 32.2791 26.6981 29.6371 27.4268 28.4381C27.6292 28.1028 28.4894 26.2432 29.2384 24.6377C29.6229 23.8147 30.4731 23.3981 31.3738 23.4082H31.394C32.3251 23.4082 33.0842 22.6461 33.0842 21.7113C33.0842 20.9593 32.5883 20.3293 31.9102 20.1058H31.89Z" fill="#F62654"/>
<path d="M28.9044 23.266C26.9511 24.9121 24.3198 25.1661 23.5 25.1661V30.3281C24.3602 30.3281 25.3217 29.6981 26.2326 28.5397C27.0321 27.5236 28.4085 24.9934 29.208 23.4997C29.3092 23.3066 29.0764 23.1339 28.9145 23.2761L28.9044 23.266Z" fill="black"/>
<path d="M18.0956 23.266C20.0489 24.9121 22.6802 25.1661 23.5 25.1661V30.3281C22.6397 30.3281 21.6783 29.6981 20.7674 28.5397C19.9679 27.5236 18.5915 24.9934 17.792 23.4997C17.6908 23.3066 17.9236 23.1339 18.0855 23.2761L18.0956 23.266Z" fill="black"/>
<path d="M25.6253 24.8715C25.6253 24.8715 24.6335 25.1255 23.5 25.1661C22.3665 25.1255 21.3747 24.8715 21.3747 24.8715C21.3747 25.2474 21.4152 25.7961 21.6479 26.1111C21.8402 26.3753 22.9333 26.4465 23.4899 26.4465C24.0566 26.4465 25.1497 26.3753 25.3318 26.1111C25.5646 25.786 25.6051 25.2474 25.6051 24.8715H25.6253Z" fill="white"/>
<path d="M23.5 21.3556C26.1662 21.3556 28.3275 19.2856 28.3275 16.7322C28.3275 14.1787 26.1662 12.1088 23.5 12.1088C20.8338 12.1088 18.6725 14.1787 18.6725 16.7322C18.6725 19.2856 20.8338 21.3556 23.5 21.3556Z" fill="black"/>
<path d="M23.5 20.1566C25.9147 20.1566 27.8721 18.2822 27.8721 15.9701C27.8721 13.658 25.9147 11.7836 23.5 11.7836C21.0854 11.7836 19.1279 13.658 19.1279 15.9701C19.1279 18.2822 21.0854 20.1566 23.5 20.1566Z" fill="#F62654"/>
<path d="M24.5424 29.5762C24.4108 29.4949 24.2084 29.4238 23.5 29.4238C22.7915 29.4238 22.5891 29.4949 22.4576 29.5762C22.3766 29.627 22.3462 29.7388 22.326 29.9623C22.326 29.9623 22.8624 30.318 23.5101 30.318C24.1578 30.318 24.6942 29.9623 24.6942 29.9623C24.674 29.7388 24.6436 29.627 24.5626 29.5762H24.5424Z" fill="white"/>
<path d="M29.7747 10.2289C30.8374 10.7573 31.5863 11.6515 32.0013 12.6676C32.3454 11.2552 31.8697 9.41598 30.5237 8.74533C29.1776 8.07468 27.4065 8.79614 26.5058 9.91389C27.5685 9.62937 28.7222 9.69034 29.7849 10.2289H29.7747Z" fill="black"/>
<path d="M17.2151 10.2289C16.1525 10.7573 15.4035 11.6515 14.9886 12.6676C14.6445 11.2552 15.1202 9.41598 16.4662 8.74533C17.8122 8.07468 19.5833 8.79614 20.4841 9.91389C19.4214 9.62937 18.2677 9.69034 17.205 10.2289H17.2151Z" fill="black"/>
</g>
<path d="M60.6752 23.9277H63.1989C67.1738 23.9435 69.0193 22.5396 69.0193 19.732C69.0193 16.7666 67.3315 15.3312 63.0569 15.3312H57V26.6407H60.6752V23.9277ZM60.6752 18.4386H63.0254C64.6185 18.4386 65.2652 18.6436 65.2652 19.7478C65.2652 20.6626 64.7289 20.9781 63.0727 20.9781H60.6752V18.4386Z" fill="black"/>
<path d="M78.52 26.9562C81.2645 26.9562 83.3466 26.1202 84.4823 24.3693C85.0501 23.486 85.334 22.3977 85.334 21.0727V21.0096C85.334 18.4701 84.1195 16.6877 82.0689 15.7413C81.0595 15.2839 79.8765 15.0473 78.5515 15.0473C75.8385 15.0473 73.7406 16.0095 72.5734 17.8076C72.0056 18.691 71.7059 19.7635 71.7059 21.0254V21.0569C71.7059 23.77 72.8416 25.4735 74.8921 26.3252C75.9331 26.7511 77.1319 26.9562 78.52 26.9562ZM78.5042 23.6122C76.706 23.6122 75.6334 22.7762 75.6334 21.0569V21.0412C75.6334 19.243 76.7218 18.3913 78.52 18.3913C80.3023 18.3913 81.4065 19.1957 81.4065 21.0569C81.4065 22.8709 80.3023 23.6122 78.5042 23.6122Z" fill="black"/>
<path d="M88.3741 26.6407H98.674V23.0917H92.3174V15.3312H88.3741V26.6407Z" fill="black"/>
<path d="M102.041 26.6407H105.937V22.1611L110.859 15.3312H106.616L104.06 19.038L101.615 15.3312H97.3566L102.041 22.1453V26.6407Z" fill="black"/>
<path d="M116.616 20.3945L119.676 23.9592H119.945L123.147 20.3629V26.6407H126.869V15.3312H123.525L119.897 19.5585L116.348 15.3312H112.878V26.6407H116.616V20.3945Z" fill="black"/>
<path d="M136.724 26.9562C139.469 26.9562 141.551 26.1202 142.686 24.3693C143.254 23.486 143.538 22.3977 143.538 21.0727V21.0096C143.538 18.4701 142.324 16.6877 140.273 15.7413C139.264 15.2839 138.081 15.0473 136.756 15.0473C134.043 15.0473 131.945 16.0095 130.777 17.8076C130.21 18.691 129.91 19.7635 129.91 21.0254V21.0569C129.91 23.77 131.046 25.4735 133.096 26.3252C134.137 26.7511 135.336 26.9562 136.724 26.9562ZM136.708 23.6122C134.91 23.6122 133.838 22.7762 133.838 21.0569V21.0412C133.838 19.243 134.926 18.3913 136.724 18.3913C138.506 18.3913 139.611 19.1957 139.611 21.0569C139.611 22.8709 138.506 23.6122 136.708 23.6122Z" fill="black"/>
<path d="M150.301 23.4229H152.572C154.086 23.4229 154.544 23.7857 154.544 25.0318V25.8836C154.544 26.1517 154.623 26.4987 154.922 26.6407H158.913C158.613 26.4672 158.503 26.1517 158.503 25.8205V25.0949C158.503 23.2179 157.998 22.3504 156.405 21.9718C157.951 21.4828 158.645 20.5837 158.645 19.038C158.645 17.3187 157.966 16.2461 156.247 15.7256C155.395 15.4732 154.276 15.3312 152.84 15.3312H146.578V26.6407H150.301V23.4229ZM150.301 18.3124H152.887C154.212 18.3124 154.812 18.549 154.812 19.4007V19.5112C154.812 20.3945 154.023 20.5995 152.84 20.5995H150.301V18.3124Z" fill="black"/>
<path d="M165.386 23.9277H167.91C171.884 23.9435 173.73 22.5396 173.73 19.732C173.73 16.7666 172.042 15.3312 167.768 15.3312H161.711V26.6407H165.386V23.9277ZM165.386 18.4386H167.736C169.329 18.4386 169.976 18.6436 169.976 19.7478C169.976 20.6626 169.44 20.9781 167.783 20.9781H165.386V18.4386Z" fill="black"/>
<path d="M185.16 22.6974V26.6407H188.961V15.3312H185.16V19.3219H180.491V15.3312H176.658V26.6407H180.491V22.6974H185.16Z" fill="black"/>
<path d="M198.51 26.9719C201.365 26.9719 203.131 26.2779 203.983 25.0949C204.425 24.4955 204.63 23.8173 204.63 23.0128C204.63 21.404 203.857 20.5049 202.232 20.0159C201.412 19.7793 200.418 19.6216 199.172 19.5585C197.721 19.4796 196.869 19.3692 196.412 19.243C195.97 19.1168 195.844 18.9276 195.844 18.6594C195.844 18.1547 196.317 17.7919 197.8 17.7919C199.362 17.7919 200.308 18.06 200.545 19.0064H204.567C203.888 16.0884 201.775 15 197.91 15C194.109 15 192.011 16.4669 192.011 18.8802C192.011 21.1989 193.62 22.0664 197.043 22.303C199.109 22.4292 200.119 22.5239 200.513 22.7605C200.702 22.8709 200.813 23.0444 200.813 23.281C200.813 23.8804 200.197 24.1327 198.762 24.1327C197.216 24.1327 196.081 23.8173 195.813 22.7762H191.601C191.932 24.6375 192.831 25.8836 194.74 26.4987C195.718 26.8142 196.948 26.9719 198.51 26.9719Z" fill="black"/>
<defs>
<clipPath id="clip0_7472_147961">
<rect width="47" height="34" fill="white" transform="translate(0 4)"/>
</clipPath>
</defs>
</svg>
