<svg width="20" height="20" viewBox="0 0 20 20" fill="none" xmlns="http://www.w3.org/2000/svg">
<path fill-rule="evenodd" clip-rule="evenodd" d="M12.5 1.75C12.0858 1.75 11.75 2.08579 11.75 2.5C11.75 2.91421 12.0858 3.25 12.5 3.25H15.6893L10 8.93933L3.03033 1.96967C2.73744 1.67678 2.26256 1.67678 1.96967 1.96967C1.67678 2.26256 1.67678 2.73744 1.96967 3.03033L8.93935 9.99999L1.96967 16.9697C1.67678 17.2626 1.67678 17.7374 1.96967 18.0303C2.26256 18.3232 2.73744 18.3232 3.03033 18.0303L10.5303 10.5303L16.75 4.31066V7.49998C16.75 7.9142 17.0858 8.24998 17.5 8.24998C17.9142 8.24998 18.25 7.9142 18.25 7.49998V2.5C18.25 2.48706 18.2497 2.47419 18.249 2.46141C18.2446 2.37376 18.2251 2.29009 18.1931 2.21291C18.1565 2.12445 18.1022 2.04158 18.0303 1.96967C17.9584 1.89776 17.8755 1.84351 17.7871 1.80691C17.6987 1.77024 17.6017 1.75 17.5 1.75H12.5ZM17.5 11.75C17.0858 11.75 16.75 12.0858 16.75 12.5V15.6893L14.697 13.6363L13.6553 12.5947C13.3624 12.3018 12.8876 12.3018 12.5947 12.5947C12.3018 12.8875 12.3018 13.3624 12.5947 13.6553L13.6363 14.697L15.6894 16.75H12.5C12.0858 16.75 11.75 17.0858 11.75 17.5C11.75 17.9142 12.0858 18.25 12.5 18.25H17.5C17.6082 18.25 17.711 18.2271 17.8039 18.1859C17.8746 18.1546 17.9415 18.1118 18.0016 18.0575C18.0207 18.0404 18.0388 18.0223 18.056 18.0033C18.1135 17.94 18.1582 17.8692 18.1901 17.7942C18.2239 17.7151 18.2444 17.6289 18.249 17.5386C18.2497 17.5258 18.25 17.5129 18.25 17.5V12.5C18.25 12.0858 17.9142 11.75 17.5 11.75Z" fill="black"/>
</svg>
