<svg width="48" height="32" viewBox="0 0 48 32" fill="none" xmlns="http://www.w3.org/2000/svg">
<path fill-rule="evenodd" clip-rule="evenodd" d="M42.7526 0.955786C44.8191 1.4826 46.4432 3.02917 46.9963 4.99718C47.996 8.56067 48 16 48 16C48 16 48 23.4394 46.9963 27.0029C46.4432 28.9709 44.8191 30.5174 42.7526 31.0442C39.0109 32 23.9999 32 23.9999 32C23.9999 32 8.98912 32 5.24727 31.0442C3.18077 30.5174 1.5568 28.9709 1.00362 27.0029C0 23.4394 0 16 0 16C0 16 0 8.56067 1.00362 4.99718C1.5568 3.02917 3.18077 1.4826 5.24727 0.955786C8.98912 0 23.9999 0 23.9999 0C23.9999 0 39.0109 0 42.7526 0.955786ZM31.6656 16.0004L19.1954 22.8564V9.14429L31.6656 16.0004Z" fill="black" fill-opacity="0.2"/>
<path d="M19.1953 22.8564L31.6655 16.0004L19.1953 9.14429V22.8564Z" fill="white" fill-opacity="0.2"/>
</svg>
