<svg width="36" height="25" viewBox="0 0 36 25" fill="none" xmlns="http://www.w3.org/2000/svg">
<path d="M35.1886 3.90341C34.7769 2.36932 33.5592 1.15909 32.0099 0.744318C29.2085 2.98023e-07 17.9688 0 17.9688 0C17.9688 0 6.73471 2.98023e-07 3.92763 0.744318C2.38402 1.15341 1.16628 2.36364 0.748936 3.90341C0 6.6875 0 12.5 0 12.5C0 12.5 0 18.3125 0.748936 21.0966C1.16057 22.6307 2.3783 23.8409 3.92763 24.2557C6.73471 25 17.9688 25 17.9688 25C17.9688 25 29.2085 25 32.0099 24.2557C33.5535 23.8466 34.7712 22.6364 35.1886 21.0966C35.9375 18.3125 35.9375 12.5 35.9375 12.5C35.9375 12.5 35.9375 6.6875 35.1886 3.90341Z" fill="#FF0000"/>
<path d="M14.3779 17.858L23.7139 12.5L14.3779 7.14209V17.858Z" fill="white"/>
</svg>
