<svg width="20" height="20" viewBox="0 0 20 20" fill="none" xmlns="http://www.w3.org/2000/svg">
<path fill-rule="evenodd" clip-rule="evenodd" d="M2 4.75C2 3.23122 3.23122 2 4.75 2H7.25C7.66421 2 8 2.33579 8 2.75C8 3.16421 7.66421 3.5 7.25 3.5H4.75C4.05964 3.5 3.5 4.05964 3.5 4.75V15.25C3.5 15.9404 4.05964 16.5 4.75 16.5H15.25C15.9404 16.5 16.5 15.9404 16.5 15.25V12.75C16.5 12.3358 16.8358 12 17.25 12C17.6642 12 18 12.3358 18 12.75V15.25C18 16.7688 16.7688 18 15.25 18H4.75C3.23122 18 2 16.7688 2 15.25V4.75ZM12 2.75C12 2.33579 12.3358 2 12.75 2H17.25C17.6642 2 18 2.33579 18 2.75V7.25C18 7.66421 17.6642 8 17.25 8C16.8358 8 16.5 7.66421 16.5 7.25V4.56066L10.2803 10.7803C9.98744 11.0732 9.51256 11.0732 9.21967 10.7803C8.92678 10.4874 8.92678 10.0126 9.21967 9.71967L15.4393 3.5H12.75C12.3358 3.5 12 3.16421 12 2.75Z" fill="black"/>
</svg>
