<svg width="18" height="16" viewBox="0 0 18 16" fill="none" xmlns="http://www.w3.org/2000/svg">
<path fill-rule="evenodd" clip-rule="evenodd" d="M4.8335 0.166504C5.24771 0.166504 5.5835 0.50229 5.5835 0.916504V15.0832C5.5835 15.2199 5.54691 15.3481 5.483 15.4585C5.45766 15.5023 5.42752 15.5441 5.39257 15.5831C5.38275 15.5941 5.3726 15.6048 5.36215 15.6152C5.06914 15.9066 4.59539 15.9061 4.303 15.6137L0.96967 12.2803C0.676777 11.9874 0.676777 11.5126 0.96967 11.2197C1.26256 10.9268 1.73744 10.9268 2.03033 11.2197L4.0835 13.2728V0.916504C4.0835 0.50229 4.41928 0.166504 4.8335 0.166504ZM8.5835 0.583496C8.16928 0.583496 7.8335 0.919283 7.8335 1.3335C7.8335 1.74771 8.16928 2.0835 8.5835 2.0835H16.9168C17.331 2.0835 17.6668 1.74771 17.6668 1.3335C17.6668 0.919283 17.331 0.583496 16.9168 0.583496H8.5835ZM8.5835 4.75C8.16928 4.75 7.8335 5.08579 7.8335 5.5C7.8335 5.91421 8.16928 6.25 8.5835 6.25H15.2502C15.6644 6.25 16.0002 5.91421 16.0002 5.5C16.0002 5.08579 15.6644 4.75 15.2502 4.75H8.5835ZM7.8335 9.6665C7.8335 9.25229 8.16928 8.9165 8.5835 8.9165H13.5835C13.9977 8.9165 14.3335 9.25229 14.3335 9.6665C14.3335 10.0807 13.9977 10.4165 13.5835 10.4165H8.5835C8.16928 10.4165 7.8335 10.0807 7.8335 9.6665ZM8.5835 13.0835C8.16928 13.0835 7.8335 13.4193 7.8335 13.8335C7.8335 14.2477 8.16928 14.5835 8.5835 14.5835H11.9168C12.331 14.5835 12.6668 14.2477 12.6668 13.8335C12.6668 13.4193 12.331 13.0835 11.9168 13.0835H8.5835Z" fill="black"/>
</svg>
