<svg width="20" height="20" viewBox="0 0 20 20" fill="none" xmlns="http://www.w3.org/2000/svg">
<path fill-rule="evenodd" clip-rule="evenodd" d="M5.48635 2.58671C5.46318 2.58456 5.43993 2.58349 5.41669 2.5835H5.4165C5.20269 2.5835 5.00977 2.67297 4.87315 2.81651L1.55317 6.1365C1.26027 6.42939 1.26027 6.90427 1.55317 7.19716C1.84606 7.49005 2.32093 7.49005 2.61383 7.19716L4.6665 5.14448V17.5002C4.6665 17.9144 5.00229 18.2502 5.4165 18.2502C5.83072 18.2502 6.1665 17.9144 6.1665 17.5002V3.35568C6.17236 3.15641 6.09925 2.95525 5.94716 2.80317C5.83932 2.69532 5.7068 2.62719 5.56778 2.59876C5.54112 2.5933 5.51395 2.58925 5.48635 2.58671ZM9.5835 3C9.16928 3 8.8335 3.33579 8.8335 3.75C8.8335 4.16421 9.16928 4.5 9.5835 4.5H17.9168C18.331 4.5 18.6668 4.16421 18.6668 3.75C18.6668 3.33579 18.331 3 17.9168 3H9.5835ZM9.5835 7.1665C9.16928 7.1665 8.8335 7.50229 8.8335 7.9165C8.8335 8.33072 9.16928 8.6665 9.5835 8.6665H16.2502C16.6644 8.6665 17.0002 8.33072 17.0002 7.9165C17.0002 7.50229 16.6644 7.1665 16.2502 7.1665H9.5835ZM8.8335 12.0835C8.8335 11.6693 9.16928 11.3335 9.5835 11.3335H14.5835C14.9977 11.3335 15.3335 11.6693 15.3335 12.0835C15.3335 12.4977 14.9977 12.8335 14.5835 12.8335H9.5835C9.16928 12.8335 8.8335 12.4977 8.8335 12.0835ZM9.5835 15.5C9.16928 15.5 8.8335 15.8358 8.8335 16.25C8.8335 16.6642 9.16928 17 9.5835 17H12.9168C13.331 17 13.6668 16.6642 13.6668 16.25C13.6668 15.8358 13.331 15.5 12.9168 15.5H9.5835Z" fill="black"/>
</svg>
